<?xml version="1.0" encoding="utf-8"?>
<!-- Generator: Adobe Illustrator 24.1.1, SVG Export Plug-In . SVG Version: 6.00 Build 0)  -->
<svg version="1.1" id="Capa_1" xmlns="http://www.w3.org/2000/svg" xmlns:xlink="http://www.w3.org/1999/xlink" x="0px" y="0px"
	 viewBox="0 0 464.8 384.4" style="enable-background:new 0 0 464.8 384.4;" xml:space="preserve">
<style type="text/css">
	.st0{fill:#0172B1;}
	.st1{fill:#FFFFFF;}
	.st2{fill:#7759A6;}
	.st3{fill:#3CBFBD;}
	.st4{stroke:#000000;stroke-width:2;stroke-miterlimit:10;}
	.st5{stroke:#000000;stroke-width:3;stroke-miterlimit:10;}
	.st6{fill:#3CBFBD;stroke:#020202;stroke-width:3;stroke-miterlimit:10;}
	.st7{fill:#606060;stroke:#020202;stroke-width:3;stroke-miterlimit:10;}
</style>
<circle class="st0" cx="232.4" cy="192.2" r="121.5"/>
<path class="st1" d="M332.3,254.3c1.8,0,3.2-1.4,3.2-3.2V114.7c0-1.8-1.4-3.2-3.2-3.2H132.5c-1.8,0-3.2,1.4-3.2,3.2v136.4
	c0,1.8,1.4,3.2,3.2,3.2H332.3z"/>
<path d="M332.3,106.6H132.5c-4.5,0-8.2,3.7-8.2,8.2v136.4c0,4.5,3.7,8.2,8.2,8.2h76.1v-5h-76.1c-1.8,0-3.2-1.4-3.2-3.2V114.7
	c0-1.8,1.4-3.2,3.2-3.2h199.7c1.8,0,3.2,1.4,3.2,3.2v136.4c0,1.8-1.4,3.2-3.2,3.2h-76.1v5h76.1c4.5,0,8.2-3.7,8.2-8.2V114.7
	C340.4,110.2,336.8,106.6,332.3,106.6C332.3,106.6,332.3,106.6,332.3,106.6z"/>
<path class="st1" d="M178.2,275.3v5.2c0,0.2,0.1,0.3,0.3,0.3h107.7c0.1,0,0.3-0.1,0.3-0.2c0,0,0,0,0-0.1v-5.2c0-0.1-0.1-0.3-0.2-0.3
	c0,0,0,0-0.1,0H178.5C178.3,275,178.2,275.1,178.2,275.3z"/>
<path d="M256.2,275h30.1c0.2,0,0.3,0.1,0.3,0.3v5.2c0,0.1-0.1,0.3-0.2,0.3c0,0,0,0-0.1,0H178.5c-0.1,0-0.3-0.1-0.3-0.2
	c0,0,0,0,0-0.1v-5.2c0-0.2,0.1-0.3,0.3-0.3h30.1v-5h-30.1c-2.9,0-5.3,2.4-5.3,5.3v5.2c0,2.9,2.4,5.3,5.3,5.3h107.7
	c2.9,0,5.3-2.4,5.3-5.3v-5.2c0-2.9-2.4-5.3-5.3-5.3h-30.1v5H256.2z"/>
<rect x="213.6" y="259.3" class="st1" width="37.5" height="10.7"/>
<path d="M256.2,254.3h-47.5V275h47.5V254.3L256.2,254.3z M251.2,270h-37.5v-10.7h37.5L251.2,270z"/>
<path class="st2" d="M211.7,150h-65.3c-1.4,0-2.5-1.1-2.5-2.5s1.1-2.5,2.5-2.5h65.3c1.4,0,2.5,1.1,2.5,2.5S213.1,150,211.7,150z"/>
<path class="st3" d="M202.2,165h-55.8c-1.4,0-2.5-1.1-2.5-2.5s1.1-2.5,2.5-2.5h55.8c1.4,0,2.5,1.1,2.5,2.5S203.6,165,202.2,165z"/>
<path class="st3" d="M211.7,135h-65.3c-1.4,0-2.5-1.1-2.5-2.5s1.1-2.5,2.5-2.5h65.3c1.4,0,2.5,1.1,2.5,2.5S213.1,135,211.7,135z"/>
<path class="st3" d="M211.7,180h-65.3c-1.4,0-2.5-1.1-2.5-2.5s1.1-2.5,2.5-2.5h65.3c1.4,0,2.5,1.1,2.5,2.5S213.1,180,211.7,180z"/>
<path class="st3" d="M202.2,194h-55.8c-1.4,0-2.5-1.1-2.5-2.5s1.1-2.5,2.5-2.5h55.8c1.4,0,2.5,1.1,2.5,2.5S203.6,194,202.2,194z"/>
<path class="st3" d="M211.7,222h-65.3c-1.4,0-2.5-1.1-2.5-2.5s1.1-2.5,2.5-2.5h65.3c1.4,0,2.5,1.1,2.5,2.5S213.1,222,211.7,222z"/>
<path class="st2" d="M211.7,236h-65.3c-1.4,0-2.5-1.1-2.5-2.5s1.1-2.5,2.5-2.5h65.3c1.4,0,2.5,1.1,2.5,2.5S213.1,236,211.7,236z"/>
<path class="st2" d="M242.7,165h-27.9c-1.4,0-2.5-1.1-2.5-2.5s1.1-2.5,2.5-2.5h27.9c1.4,0,2.5,1.1,2.5,2.5S244.1,165,242.7,165z"/>
<path class="st3" d="M259.1,180h-32.6c-1.4,0-2.5-1.1-2.5-2.5s1.1-2.5,2.5-2.5h32.6c1.4,0,2.5,1.1,2.5,2.5c0,0,0,0,0,0
	C261.6,178.9,260.5,180,259.1,180z"/>
<path class="st2" d="M242.7,194h-27.9c-1.4,0-2.5-1.1-2.5-2.5s1.1-2.5,2.5-2.5h27.9c1.4,0,2.5,1.1,2.5,2.5S244.1,194,242.7,194z"/>
<path class="st3" d="M196,208h-49.6c-1.4,0-2.5-1.1-2.5-2.5s1.1-2.5,2.5-2.5H196c1.4,0,2.5,1.1,2.5,2.5S197.4,208,196,208z"/>
<path class="st3" d="M259.1,222h-32.6c-1.4,0-2.5-1.1-2.5-2.5s1.1-2.5,2.5-2.5h32.6c1.4,0,2.5,1.1,2.5,2.5c0,0,0,0,0,0
	C261.6,220.9,260.5,222,259.1,222z"/>
<path class="st3" d="M286,236h-59.6c-1.4,0-2.5-1.1-2.5-2.5s1.1-2.5,2.5-2.5H286c1.4,0,2.5,1.1,2.5,2.5S287.4,236,286,236z"/>
<path class="st3" d="M286,150h-61.8c-1.4,0-2.5-1.1-2.5-2.5s1.1-2.5,2.5-2.5H286c1.4,0,2.5,1.1,2.5,2.5S287.4,150,286,150z"/>
<path class="st3" d="M300,165h-45.6c-1.4,0-2.5-1.1-2.5-2.5s1.1-2.5,2.5-2.5H300c1.4,0,2.5,1.1,2.5,2.5S301.4,165,300,165z"/>
<path class="st3" d="M318,194h-61.8c-1.4,0-2.5-1.1-2.5-2.5s1.1-2.5,2.5-2.5H318c1.4,0,2.5,1.1,2.5,2.5S319.4,194,318,194z"/>
<path class="st2" d="M300,222h-27.6c-1.4,0-2.5-1.1-2.5-2.5s1.1-2.5,2.5-2.5H300c1.4,0,2.5,1.1,2.5,2.5S301.4,222,300,222z"/>
<path class="st3" d="M323.7,295.1c0.8-0.1,1.6-0.1,2.4,0c2.3,0.4,3.7-0.4,4.3-2.7c0.9-3.3,2.8-5.7,6.4-6.4c0.6-0.2,1.1-0.4,1.6-0.8
	c0.9-0.6,2-0.6,2.9,0c4.4,2.9,7.9,1.9,11-2.3c1.1-1.4,1.9-2.4,0.9-4.2c-1.8-3.3-2.5-6.6-0.1-10c0.1-0.2,0.2-0.5,0.3-0.7
	c0.1-1.3,1.1-2.4,2.4-2.7c5-1.1,6.7-4.2,6-9.2c-0.3-2.1-0.5-3.5-2.7-4.1c-3.4-0.9-6-2.8-6.6-6.5c-0.1-0.3-0.2-0.7-0.4-0.9
	c-0.9-1.1-0.9-2.7-0.2-3.9c2.8-4.3,1.6-7.5-2.2-10.5c-1.7-1.3-2.8-1.9-4.9-0.9c-1.7,0.8-3.6,2.3-5.5,1.6c-3.6-1.3-7.8-2.2-8.7-7.1
	c-0.5-2.6-2.3-3-4.8-3.2c-4.6-0.4-7.2,1-8.6,5.5c-1,3.2-7.5,5.8-10.5,4.2c-3.9-2.1-6.6-1.5-9.6,1.9c-1.9,2.1-2.4,3.7-1.2,6.2
	c0.7,1.5,2,3.1,1.4,4.8c-1.4,3.6-2.3,7.8-7.1,8.7c-0.4,0.1-0.8,0.4-1.2,0.5c-1.3,0.2-2.1,1.4-1.9,2.7c0,0,0,0.1,0,0.1
	c0.2,1,0.2,2.1,0,3.1c-0.6,3.5,0.9,5.1,4.1,6.3c4.6,1.6,7,6.7,5.4,11.3c-0.1,0.3-0.3,0.7-0.4,1c-1.5,3.2-0.8,5,1.5,7.5
	c2.6,2.8,4.8,3.1,8.1,1.6c4.5-1.9,9.7,0.2,11.7,4.7c0,0.1,0.1,0.1,0.1,0.2C318.9,294.1,320.5,296.1,323.7,295.1z"/>
<path class="st4" d="M322.1,296.4c-3.5,0-4.9-3.7-5.5-5.2c-0.8-2-2.4-3.6-4.4-4.4c-1.9-0.8-4.1-0.8-6,0.1c-3.8,1.8-6.4,1.3-9.3-1.8
	c-2.4-2.6-3.5-4.8-1.7-8.6c1.9-3.9,0.4-8.6-3.5-10.5c-0.3-0.2-0.6-0.3-0.9-0.4c-2.7-1-5.6-2.8-4.7-7.5c0.1-0.9,0.1-1.9,0-2.8
	c-0.4-1.8,0.8-3.6,2.6-3.9c0,0,0,0,0,0c0.1,0,0.2-0.1,0.3-0.2c0.3-0.2,0.6-0.3,0.9-0.4c3.6-0.7,4.6-3.4,5.8-6.6
	c0.2-0.5,0.4-1,0.5-1.4c0.4-0.9-0.2-1.9-0.8-3c-0.2-0.3-0.3-0.6-0.5-0.9c-1.5-3.1-0.6-5.1,1.3-7.3c3.3-3.8,6.5-4.4,10.8-2.1
	c1.1,0.6,3.2,0.5,5.2-0.4s3.5-2.1,3.8-3.2c1.5-4.8,4.5-6.7,9.6-6.2c2.2,0.2,5,0.5,5.7,4.1c0.7,3.8,3.6,4.8,6.9,5.9l1.2,0.4
	c1.1,0.4,2.3-0.3,3.6-1c0.4-0.2,0.8-0.4,1.2-0.6c2.7-1.3,4.3-0.3,6,1c4.5,3.6,5.3,7.5,2.5,11.9c-0.6,0.9-0.5,2,0.2,2.8
	c0.3,0.4,0.5,0.8,0.6,1.3c0.5,3,2.3,4.7,5.9,5.7c2.9,0.8,3.2,3,3.5,5c0.8,5.8-1.4,9.2-6.8,10.3c-0.9,0.2-1.6,1-1.6,1.9
	c-0.1,0.4-0.2,0.8-0.4,1.1c-1.8,2.6-1.8,5.4,0.2,8.9c1.3,2.3,0.1,3.8-0.9,5.1l-0.1,0.2c-3.5,4.8-7.7,5.6-12.4,2.5
	c-0.6-0.4-1.3-0.4-1.9,0l-0.4,0.2c-0.5,0.3-1,0.5-1.5,0.6c-2.9,0.5-4.7,2.3-5.6,5.6c-0.8,2.8-2.6,4-5.5,3.5c-0.4,0-0.7,0-1.1,0h-1
	C323.3,296.3,322.7,296.4,322.1,296.4z M309.3,284.2c1.3,0,2.6,0.3,3.8,0.7c2.5,1,4.5,3,5.5,5.5c1.5,3.9,2.9,4.3,4.8,3.7l0.2,0h0.2
	h1.1c0.5,0,1,0,1.5,0c1.8,0.3,2.7-0.2,3.2-2c1.1-4.1,3.5-6.5,7.3-7.1c0.3-0.1,0.6-0.2,0.9-0.4l0.4-0.2c1.2-0.8,2.8-0.7,3.9,0.1
	c3.8,2.5,6.7,1.9,9.6-2l0.1-0.2c1-1.4,1.3-1.9,0.7-2.9c-2.3-4.2-2.4-7.8-0.1-11.1c0.1-0.1,0.1-0.2,0.1-0.3c0.2-1.7,1.5-3.1,3.2-3.5
	c4.3-1,5.9-3.4,5.2-8.1c-0.3-2.1-0.5-2.9-2-3.3c-4.3-1.2-6.7-3.6-7.3-7.4c-0.1-0.2-0.2-0.4-0.3-0.5c-1.1-1.5-1.2-3.5-0.2-5
	c2.3-3.5,1.7-6.2-2-9.1c-1.6-1.2-2.3-1.5-3.8-0.8c-0.4,0.2-0.7,0.4-1.1,0.6c-1.5,0.8-3.3,1.8-5.2,1.1l-1.1-0.4
	c-3.4-1.2-7.3-2.5-8.3-7.4c-0.3-1.8-1.2-2.1-3.9-2.4c-4.3-0.4-6.3,0.9-7.5,4.8c-0.5,1.8-2.4,3.5-5,4.5s-5.3,1.2-6.9,0.3
	c-3.5-1.9-5.6-1.4-8.3,1.7c-1.8,2-2,3.1-1,5.1c0.1,0.3,0.3,0.6,0.4,0.8c0.8,1.3,1.7,3,1,4.8c-0.2,0.5-0.4,0.9-0.5,1.4
	c-1.2,3.3-2.6,7.1-7.4,7.9c-0.1,0-0.2,0.1-0.3,0.1c-0.2,0.1-0.5,0.2-0.7,0.3c-1,0.3-1.3,0.7-1.1,1.7c0.2,1.1,0.2,2.2,0,3.4
	c-0.5,2.7,0.4,4,3.4,5.2c5.1,1.8,7.9,7.4,6.1,12.6c-0.1,0.4-0.3,0.8-0.5,1.1c-1.2,2.5-0.9,3.9,1.4,6.3s4,2.8,7,1.4
	C306.7,284.5,308,284.2,309.3,284.2z"/>
<path class="st1" d="M308.2,257.8c-0.1,8.9,7.1,16.2,16,16.3c8.9,0.1,16.2-7.1,16.3-16c0.1-8.9-7.1-16.2-16-16.3c-0.1,0-0.2,0-0.2,0
	c-8.8-0.1-16,6.9-16.1,15.7C308.2,257.6,308.2,257.7,308.2,257.8z"/>
<path class="st5" d="M324.3,275c-9.5-0.2-17-8.1-16.7-17.6c0.2-9.2,7.6-16.5,16.7-16.7l0,0c4.6,0,9.1,1.8,12.3,5.1
	c6.6,6.8,6.5,17.7-0.3,24.3C333.2,273.3,328.9,275,324.3,275L324.3,275z M324.3,242.8L324.3,242.8c-8.1-0.2-14.9,6.3-15,14.4
	c0,0.2,0,0.4,0,0.6l0,0c-0.2,8.2,6.3,15,14.5,15.2c0.2,0,0.4,0,0.5,0l0,0c8.4,0,15.1-6.8,15.1-15.2c0-3.9-1.6-7.7-4.3-10.5
	C332.3,244.4,328.4,242.8,324.3,242.8L324.3,242.8z"/>
<g>
	<path class="st6" d="M176.8,156l-18.9-18.9l-0.8,0.8c-1.3,1.3-3.4,1.3-4.7,0c-1.3-1.3-1.3-3.4,0-4.7l0.8-0.8l-4.7-4.7l-15.8,15.8
		l4.7,4.7l0.8-0.8c1.3-1.3,3.4-1.3,4.7,0c1.3,1.3,1.3,3.4,0,4.7l-0.8,0.8l18.9,18.9c0.6,0.6,1.2,1.1,1.9,1.5l15.4-15.4
		C177.9,157.2,177.4,156.5,176.8,156L176.8,156z"/>
	<path class="st7" d="M178.3,157.9l-15.4,15.4c5.2,3.3,12.1,1.8,15.4-3.4C180.7,166.3,180.7,161.5,178.3,157.9L178.3,157.9z
		 M178.3,157.9"/>
	<path class="st7" d="M107.3,95.9l-1.6-6.3l-11.1-6.3l-6.3,6.3l6.3,11.1l6.3,1.6l36.4,36.4l6.3-6.3L107.3,95.9z M107.3,95.9"/>
	<path class="st7" d="M179.5,96.5L169,107l-9.5-3.2l-3.2-9.5l10.5-10.5c-9.3-2.4-18.7,3.2-21.1,12.5c-0.7,2.8-0.7,5.8,0,8.6
		l-35.9,35.9c-9.4-2.4-18.9,3.3-21.3,12.7c-2.4,9.4,3.3,18.9,12.7,21.3c9.4,2.4,18.9-3.3,21.3-12.7c0.7-2.8,0.7-5.8,0-8.6l35.9-35.9
		c9.3,2.4,18.7-3.3,21.1-12.5C180.3,102.2,180.3,99.3,179.5,96.5L179.5,96.5z M110.4,165.6h-9.5l-4.7-7.9l4.7-7.9h9.5l4.7,7.9
		L110.4,165.6z M110.4,165.6"/>
	<path class="st2" d="M115.6,145.5l34.8-34.8l2.2,2.2l-34.8,34.8L115.6,145.5z M115.6,145.5"/>
	<path class="st1" d="M150.5,147.7l2.2-2.2l15.8,15.8l-2.2,2.2L150.5,147.7z M150.5,147.7"/>
</g>
</svg>
