<svg width="166" height="80" viewBox="0 0 166 80" fill="none" xmlns="http://www.w3.org/2000/svg">
<path d="M18.8239 51.7647C18.8239 49.2685 19.8155 46.8746 21.5805 45.1096C23.3456 43.3445 25.7395 42.3529 28.2356 42.3529H32.9415V37.6471H28.2356C25.4434 37.6471 22.7139 38.475 20.3923 40.0263C18.0707 41.5776 16.2612 43.7824 15.1926 46.3621C14.1241 48.9418 13.8445 51.7804 14.3893 54.5189C14.934 57.2575 16.2786 59.773 18.2529 61.7474C20.2273 63.7218 22.7429 65.0663 25.4814 65.6111C28.22 66.1558 31.0586 65.8762 33.6382 64.8077C36.2179 63.7392 38.4228 61.9297 39.974 59.608C41.5253 57.2864 42.3533 54.5569 42.3533 51.7647V0H37.6474V51.7647C37.6474 54.2609 36.6558 56.6548 34.8908 58.4198C33.1257 60.1849 30.7318 61.1765 28.2356 61.1765C25.7395 61.1765 23.3456 60.1849 21.5805 58.4198C19.8155 56.6548 18.8239 54.2609 18.8239 51.7647Z" fill="url(#paint0_linear)"/>
<path d="M28.2357 35.2933H32.9416V30.5874H28.2357C22.8251 30.5939 17.6217 32.6688 13.6912 36.387C9.76066 40.1052 7.40038 45.1855 7.09375 50.5874H11.7996C12.1015 46.4337 13.9639 42.5481 17.0128 39.7111C20.0616 36.8741 24.0711 35.2958 28.2357 35.2933Z" fill="url(#paint1_linear)"/>
<path d="M44.7063 51.7647C44.711 56.0334 43.058 60.1371 40.0957 63.2107C37.1334 66.2842 33.0934 68.0874 28.8274 68.2399C24.5614 68.3925 20.4029 66.8826 17.2286 64.0285C14.0543 61.1744 12.1124 57.1993 11.8121 52.9411H7.10626C7.46682 58.406 9.9306 63.5187 13.9803 67.2057C18.0301 70.8928 23.3508 72.8675 28.8255 72.7153C34.3001 72.563 39.5029 70.2957 43.3414 66.3892C47.18 62.4828 49.3558 57.2411 49.4121 51.7647V18.8235H44.7063V51.7647Z" fill="url(#paint2_linear)"/>
<path d="M49.4121 4.7063H44.7062V16.471H49.4121V4.7063Z" fill="url(#paint3_linear)"/>
<path d="M51.7647 9.4126V51.7655C51.7647 56.4192 50.3847 60.9684 47.7993 64.8378C45.2138 68.7072 41.5391 71.723 37.2396 73.5039C32.9402 75.2848 28.2092 75.7507 23.6449 74.8428C19.0807 73.9349 14.8881 71.694 11.5975 68.4033C8.30685 65.1127 6.06589 60.9202 5.15801 56.3559C4.25012 51.7916 4.71608 47.0607 6.49696 42.7612C8.27785 38.4618 11.2937 34.787 15.1631 32.2015C19.0325 29.6161 23.5816 28.2361 28.2353 28.2361H32.9412V23.5302H28.2353C22.6509 23.5302 17.1919 25.1862 12.5486 28.2887C7.90535 31.3913 4.28636 35.801 2.1493 40.9604C0.012234 46.1197 -0.546919 51.7969 0.542546 57.274C1.63201 62.7511 4.32116 67.7821 8.26994 71.7309C12.2187 75.6797 17.2498 78.3688 22.7269 79.4583C28.204 80.5478 33.8812 79.9886 39.0405 77.8515C44.1998 75.7145 48.6096 72.0955 51.7121 67.4522C54.8146 62.809 56.4706 57.3499 56.4706 51.7655V9.4126H51.7647Z" fill="url(#paint4_linear)"/>
<path d="M88.8377 51.7397C88.8471 53.4683 88.3639 55.1637 87.4447 56.6276C87.0067 57.3211 86.4793 57.954 85.8761 58.5099C85.2663 59.0709 84.5874 59.5517 83.8557 59.9405C82.3267 60.7536 80.6212 61.1781 78.8894 61.1766H70.5883V42.3531H78.8894C79.7618 42.3507 80.6311 42.456 81.4777 42.6668C82.2965 42.8708 83.0885 43.171 83.8369 43.5609C84.569 43.9472 85.2498 44.4236 85.8635 44.9789C86.8075 45.8328 87.5605 46.8765 88.073 48.0416C88.5855 49.2067 88.8461 50.4669 88.8377 51.7397ZM83.5671 51.7397C83.5723 50.7572 83.4478 49.7783 83.1969 48.8284C82.969 47.9546 82.5761 47.1325 82.0392 46.4064C81.5124 45.7058 80.8306 45.1367 80.0471 44.7437C79.1448 44.3092 78.1526 44.0942 77.1514 44.1162H75.7773V59.3319H77.1514C78.1436 59.3551 79.127 59.1399 80.0188 58.7044C80.8057 58.307 81.4906 57.7338 82.0204 57.0291C82.5601 56.3019 82.9572 55.479 83.1906 54.604C83.4432 53.6703 83.5698 52.707 83.5671 51.7397Z" fill="#ECEDEF"/>
<path d="M96.0004 56.8091C95.9966 57.873 95.865 58.9327 95.6082 59.9652C95.3457 61.033 94.9757 62.0715 94.5039 63.0648C94.033 64.0605 93.4633 65.0064 92.8035 65.8883C92.1753 66.7323 91.4438 67.4943 90.6262 68.1565L88.9008 67.1087C89.3665 66.4652 89.757 65.7705 90.0647 65.0381C90.3992 64.2592 90.677 63.4571 90.8961 62.6381C91.1178 61.8133 91.2854 60.9749 91.398 60.1283C91.5078 59.334 91.5644 58.5333 91.5674 57.7314V46.0765H96.0004V56.8091ZM96.1949 42.4311C96.1963 42.9056 96.0578 43.37 95.7967 43.7662C95.5355 44.1624 95.1633 44.4728 94.7266 44.6585C94.4292 44.7857 94.109 44.8513 93.7855 44.8513C93.4619 44.8513 93.1418 44.7857 92.8443 44.6585C92.5559 44.539 92.2938 44.3642 92.0725 44.144C91.8479 43.919 91.67 43.6518 91.5488 43.3579C91.4277 43.0639 91.3658 42.749 91.3666 42.4311C91.3636 42.1077 91.4277 41.7872 91.5549 41.4899C91.6768 41.2039 91.8525 40.944 92.0725 40.7244C92.2938 40.5042 92.5559 40.3294 92.8443 40.2099C93.1418 40.0827 93.4619 40.0171 93.7855 40.0171C94.109 40.0171 94.4292 40.0827 94.7266 40.2099C95.3025 40.4553 95.7612 40.914 96.0066 41.4899C96.1295 41.7881 96.1893 42.1086 96.1823 42.4311H96.1949Z" fill="#ECEDEF"/>
<path d="M115.567 53.5941C115.572 54.3376 115.466 55.0777 115.253 55.7902C115.055 56.4726 114.762 57.1241 114.384 57.7259C114.013 58.3084 113.562 58.8363 113.045 59.2945C112.524 59.7593 111.946 60.1567 111.326 60.4772C110.692 60.8047 110.021 61.0543 109.327 61.2208C107.89 61.5721 106.39 61.5721 104.954 61.2208C104.262 61.0538 103.593 60.8042 102.962 60.4772C102.341 60.1567 101.764 59.7593 101.242 59.2945C100.725 58.8363 100.274 58.3084 99.9028 57.7259C99.5262 57.13 99.2337 56.485 99.0338 55.809C98.6179 54.3745 98.6179 52.8514 99.0338 51.4169C99.2337 50.7419 99.5262 50.0979 99.9028 49.5031C100.274 48.92 100.725 48.392 101.242 47.9345C101.762 47.4677 102.34 47.0701 102.962 46.7518C104.255 46.0873 105.689 45.7407 107.144 45.7407C108.598 45.7407 110.032 46.0873 111.326 46.7518C111.947 47.0701 112.525 47.4677 113.045 47.9345C113.563 48.392 114.014 48.92 114.384 49.5031C114.761 50.0979 115.053 50.7419 115.253 51.4169C115.464 52.1234 115.569 52.8569 115.567 53.5941ZM111.071 53.5941C111.071 53.1769 111.046 52.7345 110.999 52.2671C110.952 51.8048 110.871 51.3466 110.758 50.8961C110.646 50.4498 110.491 50.0158 110.293 49.6004C110.11 49.2031 109.865 48.8368 109.569 48.5149C109.275 48.2033 108.925 47.9509 108.537 47.7714C108.097 47.5752 107.619 47.4788 107.137 47.489C106.672 47.4807 106.212 47.5795 105.791 47.7776C105.404 47.9651 105.056 48.2249 104.766 48.5431C104.466 48.872 104.219 49.2443 104.031 49.6474C103.836 50.0661 103.676 50.5006 103.555 50.9463C103.434 51.393 103.347 51.8481 103.294 52.3078C103.19 53.1632 103.19 54.0281 103.294 54.8835C103.347 55.3442 103.434 55.8004 103.555 56.2482C103.675 56.6953 103.835 57.1309 104.031 57.5502C104.22 57.9505 104.468 58.3205 104.766 58.6482C105.057 58.9646 105.405 59.2232 105.791 59.4106C106.212 59.6087 106.672 59.7075 107.137 59.6992C107.615 59.7088 108.088 59.6124 108.524 59.4169C108.916 59.2369 109.268 58.9822 109.562 58.667C109.86 58.3457 110.104 57.9793 110.287 57.5816C110.481 57.1659 110.637 56.7332 110.751 56.289C110.869 55.8381 110.952 55.3786 110.999 54.9149C111.041 54.4759 111.061 54.0351 111.059 53.5941H111.071Z" fill="#ECEDEF"/>
<path d="M134.406 53.6466C134.415 54.6953 134.246 55.7378 133.908 56.7305C133.601 57.6544 133.112 58.5077 132.471 59.2403C131.834 59.959 131.049 60.5325 130.171 60.9219C129.199 61.3487 128.146 61.5627 127.084 61.5493C126.518 61.5531 125.956 61.4652 125.418 61.2889C124.9 61.1184 124.412 60.8698 123.969 60.5517C123.062 59.8949 122.38 58.9747 122.014 57.9164L120.054 61.176H118.353V40.5234H122.77V47.8803C123.249 47.1951 123.898 46.646 124.653 46.2866C125.414 45.9427 126.242 45.7692 127.078 45.7783C128.14 45.765 129.192 45.9789 130.165 46.4058C131.041 46.7951 131.825 47.3661 132.465 48.0811C133.107 48.8128 133.596 49.6664 133.901 50.5909C134.239 51.5742 134.409 52.607 134.406 53.6466ZM129.92 53.6466C129.92 53.2638 129.901 52.856 129.864 52.423C129.824 51.9903 129.756 51.5607 129.66 51.1368C129.565 50.7155 129.432 50.3038 129.261 49.907C129.1 49.5297 128.882 49.1795 128.615 48.8685C128.353 48.5686 128.033 48.3243 127.674 48.1501C127.268 47.9622 126.825 47.8699 126.378 47.8803C125.958 47.8719 125.543 47.969 125.17 48.1627C124.811 48.3504 124.491 48.6061 124.229 48.9156C123.956 49.2396 123.729 49.5996 123.555 49.9854C123.372 50.3905 123.224 50.8103 123.112 51.2403C123.001 51.6524 122.918 52.0717 122.865 52.4952C122.814 52.877 122.788 53.2615 122.786 53.6466C122.786 54.0398 122.805 54.4581 122.843 54.9015C122.882 55.3384 122.951 55.7722 123.046 56.2003C123.138 56.6224 123.272 57.0343 123.445 57.4301C123.608 57.8059 123.828 58.1541 124.097 58.4623C124.359 58.7622 124.679 59.0047 125.039 59.1744C125.451 59.3589 125.899 59.449 126.35 59.4379C126.773 59.4492 127.193 59.3664 127.58 59.1955C127.966 59.0245 128.31 58.7698 128.587 58.4497C128.855 58.1369 129.073 57.7845 129.233 57.405C129.402 57.0057 129.536 56.592 129.632 56.1689C129.728 55.744 129.796 55.3133 129.836 54.8795C129.901 54.4372 129.92 54.0293 129.92 53.6466Z" fill="#ECEDEF"/>
<path d="M148.862 61.1761H136.078V59.4255L143.987 47.8177H136.078V46.064H148.862V47.8177L140.953 59.4255H148.862V61.1761Z" fill="#ECEDEF"/>
<path d="M165.217 46.0767L159.727 59.3598C159.1 60.874 158.4 62.3747 157.628 63.8618C156.865 65.3309 156.027 66.7602 155.118 68.1441L153.393 67.0963C153.602 66.7052 153.859 66.2523 154.165 65.7378C154.47 65.2233 154.762 64.6921 155.04 64.1441C155.329 63.5951 155.592 63.0523 155.837 62.5159C156.059 62.0397 156.247 61.5479 156.398 61.0445L149.81 46.0767H154.227L158.711 56.2884L162.162 46.0767H165.217Z" fill="#ECEDEF"/>
<defs>
<linearGradient id="paint0_linear" x1="59.3635" y1="3.18117" x2="-17.0224" y2="102.212" gradientUnits="userSpaceOnUse">
<stop stop-color="#C97863"/>
<stop offset="1" stop-color="#EDC8B8"/>
</linearGradient>
<linearGradient id="paint1_linear" x1="4328.85" y1="-106.213" x2="-102.37" y2="7318.41" gradientUnits="userSpaceOnUse">
<stop stop-color="#C97863"/>
<stop offset="1" stop-color="#EDC8B8"/>
</linearGradient>
<linearGradient id="paint2_linear" x1="8823.23" y1="1363.09" x2="-4742.99" y2="15167.4" gradientUnits="userSpaceOnUse">
<stop stop-color="#C97863"/>
<stop offset="1" stop-color="#EDC8B8"/>
</linearGradient>
<linearGradient id="paint3_linear" x1="873.177" y1="4.47104" x2="-1547.46" y2="1259.77" gradientUnits="userSpaceOnUse">
<stop stop-color="#C97863"/>
<stop offset="1" stop-color="#EDC8B8"/>
</linearGradient>
<linearGradient id="paint4_linear" x1="11401.4" y1="1416.24" x2="-6356" y2="19832.9" gradientUnits="userSpaceOnUse">
<stop stop-color="#C97863"/>
<stop offset="1" stop-color="#EDC8B8"/>
</linearGradient>
</defs>
</svg>
