
<svg width="166" height="80" viewBox="0 0 166 80" fill="none" xmlns="http://www.w3.org/2000/svg">
<path d="M18.8239 51.7647C18.8239 49.2685 19.8155 46.8746 21.5805 45.1096C23.3456 43.3445 25.7395 42.3529 28.2356 42.3529H32.9415V37.6471H28.2356C25.4434 37.6471 22.7139 38.475 20.3923 40.0263C18.0707 41.5776 16.2612 43.7824 15.1926 46.3621C14.1241 48.9418 13.8445 51.7804 14.3893 54.5189C14.934 57.2575 16.2786 59.773 18.2529 61.7474C20.2273 63.7218 22.7429 65.0663 25.4814 65.6111C28.22 66.1558 31.0586 65.8762 33.6382 64.8077C36.2179 63.7392 38.4228 61.9297 39.974 59.608C41.5253 57.2864 42.3533 54.5569 42.3533 51.7647V0H37.6474V51.7647C37.6474 54.2609 36.6558 56.6548 34.8908 58.4198C33.1257 60.1849 30.7318 61.1765 28.2356 61.1765C25.7395 61.1765 23.3456 60.1849 21.5805 58.4198C19.8155 56.6548 18.8239 54.2609 18.8239 51.7647Z" fill="url(#paint0_linear)"/>
<path d="M28.2357 35.2934H32.9416V30.5875H28.2357C22.8251 30.594 17.6217 32.6689 13.6912 36.3871C9.76066 40.1053 7.40038 45.1856 7.09375 50.5875H11.7996C12.1015 46.4338 13.9639 42.5482 17.0128 39.7112C20.0616 36.8742 24.0711 35.2959 28.2357 35.2934Z" fill="url(#paint1_linear)"/>
<path d="M44.7063 51.7646C44.711 56.0333 43.058 60.1371 40.0957 63.2106C37.1334 66.2842 33.0934 68.0873 28.8274 68.2399C24.5614 68.3925 20.4029 66.8825 17.2286 64.0285C14.0543 61.1744 12.1124 57.1992 11.8121 52.9411H7.10626C7.46682 58.406 9.9306 63.5186 13.9803 67.2057C18.0301 70.8928 23.3508 72.8675 28.8255 72.7152C34.3001 72.563 39.5029 70.2956 43.3414 66.3892C47.18 62.4828 49.3558 57.2411 49.4121 51.7646V18.8234H44.7063V51.7646Z" fill="url(#paint2_linear)"/>
<path d="M49.4121 4.70625H44.7062V16.471H49.4121V4.70625Z" fill="url(#paint3_linear)"/>
<path d="M51.7647 9.4125V51.7654C51.7647 56.4191 50.3847 60.9683 47.7993 64.8377C45.2138 68.7071 41.5391 71.7229 37.2396 73.5038C32.9402 75.2847 28.2092 75.7506 23.6449 74.8427C19.0807 73.9348 14.8881 71.6939 11.5975 68.4032C8.30685 65.1126 6.06589 60.9201 5.15801 56.3558C4.25012 51.7915 4.71608 47.0606 6.49696 42.7611C8.27785 38.4617 11.2937 34.7869 15.1631 32.2014C19.0325 29.616 23.5816 28.236 28.2353 28.236H32.9412V23.5301H28.2353C22.6509 23.5301 17.1919 25.1861 12.5486 28.2886C7.90535 31.3912 4.28636 35.8009 2.1493 40.9603C0.012234 46.1196 -0.546919 51.7968 0.542546 57.2739C1.63201 62.751 4.32116 67.782 8.26994 71.7308C12.2187 75.6796 17.2498 78.3687 22.7269 79.4582C28.204 80.5477 33.8812 79.9885 39.0405 77.8514C44.1998 75.7144 48.6096 72.0954 51.7121 67.4521C54.8146 62.8089 56.4706 57.3498 56.4706 51.7654V9.4125H51.7647Z" fill="url(#paint4_linear)"/>
<path d="M88.8377 51.7398C88.8471 53.4684 88.3639 55.1638 87.4447 56.6277C87.0067 57.3212 86.4793 57.9541 85.8761 58.51C85.2663 59.071 84.5874 59.5518 83.8557 59.9406C82.3267 60.7537 80.6212 61.1782 78.8894 61.1767H70.5883V42.3532H78.8894C79.7618 42.3508 80.6311 42.4561 81.4777 42.6669C82.2965 42.8709 83.0885 43.1711 83.8369 43.561C84.569 43.9473 85.2498 44.4237 85.8635 44.979C86.8075 45.8329 87.5605 46.8766 88.073 48.0417C88.5855 49.2068 88.8461 50.467 88.8377 51.7398ZM83.5671 51.7398C83.5723 50.7573 83.4478 49.7784 83.1969 48.8285C82.969 47.9547 82.5761 47.1326 82.0392 46.4065C81.5124 45.7059 80.8306 45.1368 80.0471 44.7438C79.1448 44.3093 78.1526 44.0943 77.1514 44.1163H75.7773V59.332H77.1514C78.1436 59.3552 79.127 59.14 80.0188 58.7045C80.8057 58.3071 81.4906 57.7339 82.0204 57.0292C82.5601 56.302 82.9572 55.4791 83.1906 54.6041C83.4432 53.6704 83.5698 52.7071 83.5671 51.7398Z" fill="#303030"/>
<path d="M96.0004 56.8092C95.9966 57.8731 95.865 58.9328 95.6082 59.9653C95.3457 61.0331 94.9757 62.0716 94.5039 63.0649C94.033 64.0606 93.4633 65.0065 92.8035 65.8884C92.1753 66.7324 91.4438 67.4944 90.6262 68.1566L88.9008 67.1088C89.3665 66.4653 89.757 65.7706 90.0647 65.0382C90.3992 64.2593 90.677 63.4572 90.8961 62.6382C91.1178 61.8134 91.2854 60.975 91.398 60.1284C91.5078 59.3341 91.5644 58.5334 91.5674 57.7315V46.0766H96.0004V56.8092ZM96.1949 42.4312C96.1963 42.9057 96.0578 43.3701 95.7967 43.7663C95.5355 44.1625 95.1633 44.4729 94.7266 44.6586C94.4292 44.7858 94.109 44.8514 93.7855 44.8514C93.4619 44.8514 93.1418 44.7858 92.8443 44.6586C92.5559 44.5391 92.2938 44.3643 92.0725 44.1441C91.8479 43.9191 91.67 43.6519 91.5488 43.358C91.4277 43.064 91.3658 42.7491 91.3666 42.4312C91.3636 42.1078 91.4277 41.7873 91.5549 41.49C91.6768 41.204 91.8525 40.9441 92.0725 40.7245C92.2938 40.5043 92.5559 40.3295 92.8443 40.21C93.1418 40.0828 93.4619 40.0172 93.7855 40.0172C94.109 40.0172 94.4292 40.0828 94.7266 40.21C95.3025 40.4554 95.7612 40.9141 96.0066 41.49C96.1295 41.7882 96.1893 42.1087 96.1823 42.4312H96.1949Z" fill="#303030"/>
<path d="M115.567 53.594C115.572 54.3375 115.466 55.0776 115.253 55.7901C115.055 56.4725 114.762 57.124 114.384 57.7258C114.013 58.3083 113.562 58.8362 113.045 59.2944C112.524 59.7592 111.946 60.1566 111.326 60.4771C110.692 60.8046 110.021 61.0542 109.327 61.2207C107.89 61.572 106.39 61.572 104.954 61.2207C104.262 61.0537 103.593 60.8041 102.962 60.4771C102.341 60.1566 101.764 59.7592 101.242 59.2944C100.725 58.8362 100.274 58.3083 99.9028 57.7258C99.5262 57.1299 99.2337 56.4849 99.0338 55.8089C98.6179 54.3744 98.6179 52.8513 99.0338 51.4168C99.2337 50.7418 99.5262 50.0978 99.9028 49.503C100.274 48.9199 100.725 48.3919 101.242 47.9344C101.762 47.4676 102.34 47.07 102.962 46.7517C104.255 46.0872 105.689 45.7406 107.144 45.7406C108.598 45.7406 110.032 46.0872 111.326 46.7517C111.947 47.07 112.525 47.4676 113.045 47.9344C113.563 48.3919 114.014 48.9199 114.384 49.503C114.761 50.0978 115.053 50.7418 115.253 51.4168C115.464 52.1233 115.569 52.8568 115.567 53.594ZM111.071 53.594C111.071 53.1768 111.046 52.7344 110.999 52.267C110.952 51.8047 110.871 51.3465 110.758 50.896C110.646 50.4497 110.491 50.0157 110.293 49.6003C110.11 49.203 109.865 48.8367 109.569 48.5148C109.275 48.2032 108.925 47.9508 108.537 47.7713C108.097 47.5751 107.619 47.4787 107.137 47.4889C106.672 47.4806 106.212 47.5794 105.791 47.7775C105.404 47.965 105.056 48.2248 104.766 48.543C104.466 48.8719 104.219 49.2442 104.031 49.6473C103.836 50.066 103.676 50.5005 103.555 50.9462C103.434 51.3929 103.347 51.848 103.294 52.3077C103.19 53.1631 103.19 54.028 103.294 54.8834C103.347 55.3441 103.434 55.8003 103.555 56.2481C103.675 56.6952 103.835 57.1308 104.031 57.5501C104.22 57.9504 104.468 58.3204 104.766 58.6481C105.057 58.9645 105.405 59.2231 105.791 59.4105C106.212 59.6086 106.672 59.7074 107.137 59.6991C107.615 59.7087 108.088 59.6123 108.524 59.4168C108.916 59.2368 109.268 58.9821 109.562 58.6669C109.86 58.3456 110.104 57.9792 110.287 57.5815C110.481 57.1658 110.637 56.7331 110.751 56.2889C110.869 55.838 110.952 55.3785 110.999 54.9148C111.041 54.4758 111.061 54.035 111.059 53.594H111.071Z" fill="#303030"/>
<path d="M134.406 53.6466C134.415 54.6953 134.246 55.7378 133.908 56.7305C133.601 57.6544 133.112 58.5077 132.471 59.2403C131.833 59.959 131.049 60.5325 130.171 60.9219C129.199 61.3487 128.146 61.5627 127.084 61.5493C126.518 61.5531 125.956 61.4652 125.418 61.2889C124.9 61.1184 124.412 60.8698 123.969 60.5517C123.062 59.8949 122.38 58.9747 122.014 57.9164L120.054 61.176H118.353V40.5234H122.77V47.8803C123.249 47.1951 123.898 46.646 124.653 46.2866C125.414 45.9427 126.242 45.7692 127.078 45.7783C128.14 45.765 129.192 45.9789 130.165 46.4058C131.041 46.7951 131.825 47.3661 132.464 48.0811C133.107 48.8128 133.596 49.6664 133.901 50.5909C134.239 51.5742 134.409 52.607 134.406 53.6466ZM129.92 53.6466C129.92 53.2638 129.901 52.856 129.864 52.423C129.824 51.9903 129.755 51.5607 129.66 51.1368C129.565 50.7155 129.432 50.3038 129.261 49.907C129.1 49.5297 128.882 49.1795 128.615 48.8685C128.352 48.5686 128.032 48.3243 127.674 48.1501C127.268 47.9622 126.825 47.8699 126.378 47.8803C125.958 47.8719 125.543 47.969 125.17 48.1627C124.811 48.3504 124.491 48.6061 124.229 48.9156C123.956 49.2396 123.729 49.5996 123.555 49.9854C123.372 50.3905 123.224 50.8103 123.112 51.2403C123.001 51.6524 122.918 52.0717 122.864 52.4952C122.814 52.877 122.788 53.2615 122.786 53.6466C122.786 54.0398 122.805 54.4581 122.843 54.9015C122.882 55.3384 122.951 55.7722 123.046 56.2003C123.138 56.6224 123.272 57.0343 123.445 57.4301C123.608 57.8059 123.828 58.1541 124.097 58.4623C124.359 58.7622 124.679 59.0047 125.039 59.1744C125.451 59.3589 125.899 59.449 126.35 59.4379C126.773 59.4492 127.193 59.3664 127.58 59.1955C127.966 59.0245 128.31 58.7698 128.587 58.4497C128.855 58.1369 129.073 57.7845 129.233 57.405C129.402 57.0057 129.536 56.592 129.632 56.1689C129.727 55.744 129.796 55.3133 129.835 54.8795C129.901 54.4372 129.92 54.0293 129.92 53.6466Z" fill="#303030"/>
<path d="M148.862 61.1762H136.078V59.4256L143.987 47.8178H136.078V46.0641H148.862V47.8178L140.953 59.4256H148.862V61.1762Z" fill="#303030"/>
<path d="M165.217 46.0766L159.727 59.3597C159.1 60.8739 158.4 62.3746 157.628 63.8617C156.865 65.3308 156.027 66.7601 155.118 68.144L153.393 67.0962C153.602 66.7051 153.859 66.2522 154.165 65.7377C154.47 65.2232 154.762 64.692 155.04 64.144C155.329 63.595 155.592 63.0522 155.837 62.5158C156.059 62.0396 156.247 61.5478 156.398 61.0444L149.81 46.0766H154.227L158.711 56.2883L162.162 46.0766H165.217Z" fill="#303030"/>
<defs>
<linearGradient id="paint0_linear" x1="59.3635" y1="3.18117" x2="-17.0224" y2="102.212" gradientUnits="userSpaceOnUse">
<stop stop-color="#C97863"/>
<stop offset="1" stop-color="#EDC8B8"/>
</linearGradient>
<linearGradient id="paint1_linear" x1="4328.85" y1="-106.212" x2="-102.37" y2="7318.41" gradientUnits="userSpaceOnUse">
<stop stop-color="#C97863"/>
<stop offset="1" stop-color="#EDC8B8"/>
</linearGradient>
<linearGradient id="paint2_linear" x1="8823.23" y1="1363.09" x2="-4742.99" y2="15167.4" gradientUnits="userSpaceOnUse">
<stop stop-color="#C97863"/>
<stop offset="1" stop-color="#EDC8B8"/>
</linearGradient>
<linearGradient id="paint3_linear" x1="873.177" y1="4.47099" x2="-1547.46" y2="1259.77" gradientUnits="userSpaceOnUse">
<stop stop-color="#C97863"/>
<stop offset="1" stop-color="#EDC8B8"/>
</linearGradient>
<linearGradient id="paint4_linear" x1="11401.4" y1="1416.24" x2="-6356" y2="19832.9" gradientUnits="userSpaceOnUse">
<stop stop-color="#C97863"/>
<stop offset="1" stop-color="#EDC8B8"/>
</linearGradient>
</defs>
</svg>
