<?xml version="1.0" encoding="utf-8"?>
<!-- Generator: Adobe Illustrator 19.2.0, SVG Export Plug-In . SVG Version: 6.00 Build 0)  -->
<svg version="1.1" id="Capa_1" xmlns="http://www.w3.org/2000/svg" xmlns:xlink="http://www.w3.org/1999/xlink" x="0px" y="0px"
	 viewBox="0 0 464.8 384.4" style="enable-background:new 0 0 464.8 384.4;" xml:space="preserve">
<style type="text/css">
	.st0{fill:#FFFFFF;}
	.st1{fill:#0172B1;}
	.st2{fill:#7759A6;}
	.st3{fill:#3CBFBD;}
</style>
<g>
	<path class="st0" d="M332.3,107.6H132.5c-1.7,0-3.2,1.4-3.2,3.2v136.4c0,1.7,1.4,3.2,3.2,3.2h76.1h47.5h76.1c1.7,0,3.2-1.4,3.2-3.2
		V110.7C335.4,109,334,107.6,332.3,107.6z M223.5,236.1c0,4.5-3.7,8.2-8.2,8.2H143c-4.5,0-8.2-3.7-8.2-8.2V120.7
		c0-4.5,3.7-8.2,8.2-8.2h72.3c4.5,0,8.2,3.7,8.2,8.2V236.1z M330,236.1c0,4.5-3.7,8.2-8.2,8.2h-82.4c-4.5,0-8.2-3.7-8.2-8.2v-61.4
		c0-4.5,3.7-8.2,8.2-8.2h82.4c4.5,0,8.2,3.7,8.2,8.2V236.1z M330,154.6c0,4.5-3.7,8.2-8.2,8.2h-82.4c-4.5,0-8.2-3.7-8.2-8.2v-33.8
		c0-4.5,3.7-8.2,8.2-8.2h82.4c4.5,0,8.2,3.7,8.2,8.2V154.6z"/>
	<path d="M332.3,102.6H132.5c-4.5,0-8.2,3.7-8.2,8.2v136.4c0,4.5,3.7,8.2,8.2,8.2h76.1V266h-30.1c-2.9,0-5.3,2.4-5.3,5.3v5.2
		c0,2.9,2.4,5.3,5.3,5.3h107.7c2.9,0,5.3-2.4,5.3-5.3v-5.2c0-2.9-2.4-5.3-5.3-5.3h-30.1v-10.7h76.1c4.5,0,8.2-3.7,8.2-8.2V110.7
		C340.4,106.2,336.8,102.6,332.3,102.6z M335.4,247.1c0,1.7-1.4,3.2-3.2,3.2h-76.1h-47.5h-76.1c-1.7,0-3.2-1.4-3.2-3.2V110.7
		c0-1.7,1.4-3.2,3.2-3.2h199.7c1.7,0,3.2,1.4,3.2,3.2L335.4,247.1L335.4,247.1z M286.6,271.3v5.2c0,0.2-0.1,0.3-0.3,0.3H178.5
		c-0.2,0-0.3-0.2-0.3-0.3v-5.2c0-0.2,0.2-0.3,0.3-0.3h30.1h47.5h30.1C286.4,271,286.6,271.1,286.6,271.3z M251.2,266h-37.5v-10.7
		h37.5V266z"/>
	<path class="st0" d="M208.6,271h-30.1c-0.2,0-0.3,0.1-0.3,0.3v5.2c0,0.2,0.2,0.3,0.3,0.3h107.7c0.2,0,0.3-0.2,0.3-0.3v-5.2
		c0-0.2-0.1-0.3-0.3-0.3h-30.1H208.6z"/>
	<rect x="213.6" y="255.3" class="st0" width="37.5" height="10.7"/>
	<path class="st1" d="M215.3,117.5H143c-1.7,0-3.2,1.4-3.2,3.2v115.4c0,1.7,1.4,3.2,3.2,3.2h72.3c1.7,0,3.2-1.4,3.2-3.2V120.7
		C218.5,119,217.1,117.5,215.3,117.5z"/>
	<path d="M215.3,112.5H143c-4.5,0-8.2,3.7-8.2,8.2v115.4c0,4.5,3.7,8.2,8.2,8.2h72.3c4.5,0,8.2-3.7,8.2-8.2V120.7
		C223.5,116.2,219.9,112.5,215.3,112.5z M218.5,236.1c0,1.7-1.4,3.2-3.2,3.2H143c-1.7,0-3.2-1.4-3.2-3.2V120.7
		c0-1.7,1.4-3.2,3.2-3.2h72.3c1.7,0,3.2,1.4,3.2,3.2V236.1z"/>
	<path class="st2" d="M321.8,117.5h-82.4c-1.7,0-3.2,1.4-3.2,3.2v33.8c0,1.7,1.4,3.2,3.2,3.2h82.4c1.7,0,3.2-1.4,3.2-3.2v-33.8
		C325,119,323.5,117.5,321.8,117.5z"/>
	<path d="M321.8,112.5h-82.4c-4.5,0-8.2,3.7-8.2,8.2v33.8c0,4.5,3.7,8.2,8.2,8.2h82.4c4.5,0,8.2-3.7,8.2-8.2v-33.8
		C330,116.2,326.3,112.5,321.8,112.5z M325,154.6c0,1.7-1.4,3.2-3.2,3.2h-82.4c-1.7,0-3.2-1.4-3.2-3.2v-33.8c0-1.7,1.4-3.2,3.2-3.2
		h82.4c1.7,0,3.2,1.4,3.2,3.2V154.6z"/>
	<path class="st3" d="M321.8,171.5h-82.4c-1.7,0-3.2,1.4-3.2,3.2v61.4c0,1.7,1.4,3.2,3.2,3.2h82.4c1.7,0,3.2-1.4,3.2-3.2v-61.4
		C325,172.9,323.5,171.5,321.8,171.5z"/>
	<path d="M321.8,166.5h-82.4c-4.5,0-8.2,3.7-8.2,8.2v61.4c0,4.5,3.7,8.2,8.2,8.2h82.4c4.5,0,8.2-3.7,8.2-8.2v-61.4
		C330,170.2,326.3,166.5,321.8,166.5z M325,236.1c0,1.7-1.4,3.2-3.2,3.2h-82.4c-1.7,0-3.2-1.4-3.2-3.2v-61.4c0-1.7,1.4-3.2,3.2-3.2
		h82.4c1.7,0,3.2,1.4,3.2,3.2V236.1z"/>
</g>
</svg>
